# xmcd
#
# Track frame offsets:
#	150
#	17521
#	42501
#	55173
#	79172
#	103767
#	131518
#	179530
#	199844
#	215169
#
# Disc length: 3295 seconds
#
# Revision: 0
# Processed by: cddbd v1.5.2PL0 Copyright (c) Steve Scherf et al.
# Submitted via: EasyCDDAExtractor 15.2.5.1
#
DISCID=8f0cdd0a
DTITLE=YOUNG FLOWERS - TAKE WARNING 2/2
DYEAR=1900
DGENRE=
TTITLE0=YOU UPSET ME BABY
TTITLE1=AND WHO I SHOULD BE 4
TTITLE2=CALYPSO 4
TTITLE3=WON'T YOU TAKE MY PLACE IN THE QUEUE
TTITLE4=SLOW DOWN DRIVER
TTITLE5=THE DAYBREAK
TTITLE6=KRAGERNE VENDER
TTITLE7=HEY PRINCESS [LIVE]
TTITLE8=TONIGHT I'LL BE STAYING HERE WITH YOU [LIVE]
TTITLE9=WON'T YOU SIT DOWN [LIVE]
EXTD=
EXTT0=
EXTT1=
EXTT2=
EXTT3=
EXTT4=
EXTT5=
EXTT6=
EXTT7=
EXTT8=
EXTT9=
PLAYORDER=
